<svg width="55" height="23" viewBox="0 0 55 23" fill="none" xmlns="http://www.w3.org/2000/svg">
<g id="Group 427322266">
<path id="Vector 820" d="M42.0418 10.894C37.4469 11.8352 33.093 15.1206 31.4905 16.6456C38.2127 13.7263 50.5934 14.3799 50.6785 14.4234C50.4657 11.8091 38.3828 13.857 38.4679 13.857C45.4454 10.6327 49.8276 12.2884 49.9126 12.2884C49.8701 10.8505 47.7854 9.71762 42.0418 10.894Z" fill="white"/>
<path id="Vector 821" d="M50.9337 16.0354C40.8249 15.3383 34.6388 17.1683 32.8093 18.1704C36.6554 17.787 46.4948 18.1559 50.9337 18.3882C50.9195 17.5894 50.8997 16.0005 50.9337 16.0354Z" fill="white"/>
<path id="Vector 816" d="M26.9751 16.8026C20.2208 12.2401 9.11133 12.1215 4.40088 12.6325C7.21517 9.77078 12.8557 4.04727 12.9036 4.04727C18.3646 2.03589 24.56 4.88535 26.9751 6.5615V16.8026Z" fill="white"/>
<path id="Vector 817" d="M28.1125 6.25503V16.9867C36.5914 9.97126 45.0981 8.70797 48.2916 8.95324C45.6171 5.96883 40.2559 0 40.208 0C33.7411 0.0981179 29.4498 4.2109 28.1125 6.25503Z" fill="white"/>
<g id="Vector 818">
<path d="M4.76253 14.6457C8.82822 14.0051 18.3257 13.5311 23.79 16.7597C23.7524 16.7981 13.5449 13.6763 4.76253 14.6457Z" fill="white"/>
<path d="M0.9646 22.0396L2.98774 19.1388C3.5354 19.9603 4.49262 20.1004 5.74613 20.1004L24.3969 19.1608C27.3879 20.7605 30.6283 19.8273 31.8746 19.1608C36.6243 19.4444 46.8383 20.0542 49.6965 20.2244C52.5546 20.3946 53.0753 19.2175 52.9784 18.6077L54.8478 22.139C47.3424 21.5717 32.3565 20.4457 32.4562 20.4797C30.1962 21.6369 26.1417 21.2739 24.3969 20.9477L0.9646 22.0396Z" fill="white"/>
</g>
<path id="Vector 819" d="M4.16113 18.7014L4.33199 16.2596C17.5376 15.0166 24.6903 18.2741 24.6535 18.2741C21.0339 18.1536 9.51941 18.4251 4.16113 18.7014Z" fill="white"/>
</g>
</svg>
