<svg width="81" height="15" viewBox="0 0 81 15" fill="none" xmlns="http://www.w3.org/2000/svg">
<path id="Combined Shape" fill-rule="evenodd" clip-rule="evenodd" d="M34.6298 4.34613L32.7183 4.34613L32.7183 2.85416C32.7183 2.07321 33.1961 1.56035 33.9071 1.56035C34.1869 1.56035 34.4433 1.60697 34.6414 1.66525L34.6414 0.767738C34.2801 0.662835 33.9304 0.61621 33.5808 0.61621C32.4269 0.61621 31.6576 1.4671 31.6576 2.7376L31.6576 4.34613L30.4454 4.34613L30.4454 5.15039L31.6576 5.15039L31.6576 11.7127L32.7183 11.7127L32.7183 5.16205L34.6298 5.16205L34.6298 4.34613ZM46.5192 5.1505C45.9598 4.48611 45.1205 4.12477 44.1298 4.12477C42.0433 4.12477 40.4698 5.76827 40.4698 7.93629C40.4698 10.116 42.055 11.7595 44.1531 11.7595C45.1322 11.7595 45.9714 11.3865 46.5309 10.6988L46.5309 11.7595L48.0345 11.7595L48.0345 1.33899L46.5309 1.33899L46.5309 5.1505L46.5192 5.1505ZM46.5427 7.93625C46.5427 9.32331 45.5636 10.3607 44.2581 10.3607C42.9526 10.3607 41.9619 9.31165 41.9619 7.93625C41.9619 6.56084 42.9526 5.52345 44.2581 5.52345C45.5636 5.52345 46.5427 6.56084 46.5427 7.93625ZM50.552 1.61835C49.9692 1.61835 49.5379 2.02631 49.5379 2.59745C49.5379 3.18025 49.9575 3.61152 50.552 3.61152C51.1231 3.61152 51.5427 3.19191 51.5427 2.59745C51.5427 2.03796 51.1231 1.61835 50.552 1.61835ZM51.2975 4.56747L49.7822 4.56747L49.7822 11.7592L51.2975 11.7592L51.2975 4.56747ZM58.8741 5.22058L58.8624 5.20791L58.8624 4.43963L60.3661 4.43963L60.3661 11.3167C60.3661 13.5546 58.8624 15 56.5429 15C54.7246 15 53.3492 14.1025 52.8596 12.5988L52.8013 12.4123L54.2933 11.8528L54.3632 12.051C54.7012 13.0301 55.4939 13.5779 56.6012 13.5779C57.9882 13.5779 58.8508 12.7037 58.8508 11.305L58.8508 10.7805C58.2214 11.4565 57.4054 11.8062 56.4496 11.8062C54.2816 11.8062 52.7197 10.221 52.7197 8.02968C52.7197 5.80338 54.2933 4.1832 56.4496 4.1832C57.4227 4.1832 58.2346 4.52858 58.8624 5.20791L58.8624 5.22058L58.8741 5.22058ZM56.5656 10.4189C55.2135 10.4189 54.2461 9.41646 54.2461 8.0294C54.2461 6.60736 55.2252 5.58163 56.5656 5.58163C57.9177 5.58163 58.8852 6.60736 58.8852 8.0294C58.8968 9.41646 57.9177 10.4189 56.5656 10.4189ZM61.8935 2.59745C61.8935 2.02631 62.3248 1.61835 62.9076 1.61835C63.4787 1.61835 63.8984 2.03796 63.8984 2.59745C63.8984 3.19191 63.4787 3.61152 62.9076 3.61152C62.3131 3.61152 61.8935 3.18025 61.8935 2.59745ZM62.1387 4.56747L63.654 4.56747L63.654 11.7592L62.1387 11.7592L62.1387 4.56747ZM67.5348 9.54462C67.5348 10.0924 67.8728 10.4421 68.3857 10.4421C68.5605 10.4421 68.8869 10.3955 69.12 10.3256L69.3881 10.244L69.3881 11.5611L69.2482 11.6077C68.9219 11.7243 68.444 11.7942 68.0826 11.7942C66.8354 11.7942 66.0079 10.9084 66.0079 9.59124L66.0079 5.63985L64.9006 5.63985L64.9006 4.34604L66.0312 4.34604L66.2876 2.15471L67.5465 2.15471L67.5348 4.34604L69.2832 4.34604L69.2832 5.63985L67.5348 5.63985L67.5348 9.54462ZM78.8408 1.45517L80.3561 1.45517L80.3561 11.7358L78.8408 11.7358L78.8408 1.45517ZM73.3279 4.07783C74.1905 4.07783 75.0181 4.36923 75.6941 4.89375L75.6941 4.22936L77.1628 4.22936L77.1628 11.7358L75.6941 11.7358L75.6941 10.9199C75.0181 11.4444 74.1905 11.7358 73.3279 11.7358C71.2182 11.7358 69.4931 10.0107 69.4931 7.901C69.4931 5.79127 71.2182 4.07783 73.3279 4.07783ZM73.328 10.2677C74.6335 10.2677 75.6942 9.207 75.6942 7.90152C75.6942 6.59605 74.6335 5.53535 73.328 5.53535C72.0226 5.53535 70.9619 6.59605 70.9619 7.90152C70.9619 9.207 72.0226 10.2677 73.328 10.2677ZM12.5419 11.7247C14.4418 11.7247 15.5259 10.9087 15.5259 9.4867C15.5259 7.74995 13.9989 7.41192 12.5535 7.22543L12.402 7.20211L12.3871 7.20032C11.3319 7.07279 10.3388 6.95277 10.3388 5.97823C10.3388 5.1623 11.1082 4.61447 12.2621 4.61447C13.4627 4.61447 14.2553 5.20893 14.3136 6.1181L15.351 6.1181C15.3044 4.69606 14.0805 3.74026 12.2738 3.74026C10.502 3.76358 9.34806 4.64944 9.34806 6.02485C9.34806 7.63339 10.8401 8.01804 12.2971 8.19288L12.4836 8.21619L12.4961 8.21784C13.5522 8.35708 14.5467 8.48822 14.5467 9.4867C14.5467 10.3259 13.8007 10.8505 12.5885 10.8505C11.2131 10.8505 10.2922 10.1394 10.2339 9.04377L9.21984 9.04377C9.25481 10.7456 10.4554 11.7247 12.5419 11.7247ZM20.9808 11.5494C20.6544 11.6426 20.1998 11.7126 19.8502 11.7126C18.6379 11.7126 17.857 10.8733 17.857 9.57951L17.857 4.87048L16.6448 4.87048L16.6448 4.06622L17.857 4.06622L18.1251 1.63011L18.9293 1.63011L18.9177 4.06622L20.8642 4.06622L20.8642 4.87048L18.9177 4.87048L18.9177 9.53288C18.9177 10.3255 19.4305 10.85 20.1765 10.85C20.3863 10.85 20.7127 10.8034 20.9808 10.7335L20.9808 11.5494ZM37.7534 4.34622L39.665 4.34622L39.665 5.16214L37.7534 5.16214L37.7534 11.7128L36.6927 11.7128L36.6927 5.15049L35.4805 5.15049L35.4805 4.34622L36.6927 4.34622L36.6927 2.7377C36.6927 1.46719 37.462 0.616302 38.6159 0.616302C38.9656 0.616302 39.3153 0.662926 39.6766 0.76783L39.6766 1.66534C39.4785 1.60706 39.222 1.56044 38.9423 1.56044C38.2313 1.56044 37.7534 2.0733 37.7534 2.85426L37.7534 4.34622ZM29.2566 11.7125L29.2566 4.42745L28.3358 4.42745L28.3358 5.58139L28.1842 5.41821C27.4732 4.67222 26.5174 4.26426 25.5034 4.26426C23.4519 4.26426 21.7734 5.93107 21.7734 7.99419C21.7734 10.0573 23.4402 11.7241 25.5034 11.7241C26.5174 11.7241 27.4732 11.3161 28.1842 10.5702L28.3358 10.407L28.3358 11.7241L29.2566 11.7241L29.2566 11.7125ZM25.4913 10.6868C23.9993 10.6868 22.7871 9.47459 22.7871 7.98262C22.7871 6.49065 23.9993 5.27842 25.4913 5.27842C26.9833 5.27842 28.1955 6.49065 28.1955 7.98262C28.1955 9.47459 26.9716 10.6868 25.4913 10.6868ZM6.06112 8.00586C6.06112 9.67959 4.7043 11.0364 3.03056 11.0364C1.35683 11.0364 5.022e-08 9.67959 4.09459e-08 8.00586C3.16717e-08 6.33212 1.35683 4.9753 3.03056 4.9753C4.7043 4.9753 6.06112 6.33212 6.06112 8.00586Z" fill="white"/>
</svg>
