<svg width="33" height="33" viewBox="0 0 33 33" fill="none" xmlns="http://www.w3.org/2000/svg">
<path fill-rule="evenodd" clip-rule="evenodd" d="M2.36328 30.6364L4.4311 23.1197C3.15531 20.92 2.48465 18.4242 2.48537 15.8681C2.48853 7.87034 9.02694 1.36365 17.0606 1.36365C20.9598 1.36534 24.6194 2.87597 27.3708 5.61768C30.1228 8.35938 31.6375 12.0038 31.636 15.8794C31.6326 23.8774 25.094 30.3848 17.0613 30.3848C17.0606 30.3848 17.0615 30.3848 17.0613 30.3848H17.0547C14.6156 30.3839 12.2186 29.7745 10.0899 28.6195L2.36328 30.6364Z" fill="#2DC600" stroke="white" stroke-width="2"/>
<path fill-rule="evenodd" clip-rule="evenodd" d="M13.6856 9.41103C13.4031 8.78571 13.1055 8.77314 12.8365 8.76227C12.6166 8.75285 12.3649 8.75333 12.1137 8.75333C11.8622 8.75333 11.4534 8.84756 11.1078 9.22329C10.7619 9.59901 9.78711 10.5075 9.78711 12.3552C9.78711 14.2032 11.1391 15.9885 11.3277 16.2393C11.5163 16.4899 13.9375 20.4027 17.7719 21.9081C20.9587 23.1592 21.6071 22.9103 22.2989 22.8477C22.9906 22.7851 24.5308 21.9392 24.8451 21.0624C25.1597 20.1855 25.1597 19.4341 25.0653 19.2768C24.9708 19.1204 24.7194 19.0264 24.3422 18.8387C23.965 18.651 22.1103 17.7422 21.7644 17.6171C21.4185 17.4917 21.167 17.4293 20.9155 17.8053C20.6638 18.1808 19.9415 19.0265 19.7213 19.2768C19.5012 19.5278 19.281 19.5592 18.9038 19.3712C18.5266 19.183 17.3115 18.7868 15.8702 17.5074C14.7487 16.5121 13.9914 15.2827 13.7713 14.9068C13.5514 14.5313 13.7676 14.3457 13.9371 14.1406C14.2422 13.7711 14.7541 13.1069 14.8798 12.8566C15.0056 12.6058 14.9427 12.3866 14.8485 12.1986C14.7541 12.0109 14.0208 10.1538 13.6856 9.41103Z" fill="white"/>
</svg>
